<?xml version="1.0" encoding="utf-8"?>
<!-- Generator: Adobe Illustrator 18.0.0, SVG Export Plug-In . SVG Version: 6.00 Build 0)  -->
<!DOCTYPE svg PUBLIC "-//W3C//DTD SVG 1.1//EN" "http://www.w3.org/Graphics/SVG/1.1/DTD/svg11.dtd">
<svg version="1.1" id="Layer_1" xmlns="http://www.w3.org/2000/svg" xmlns:xlink="http://www.w3.org/1999/xlink" x="0px" y="0px"
	 viewBox="0 0 750 228" enable-background="new 0 0 750 228" xml:space="preserve">
<g>
	<path fill="#EB2227" d="M186.2,47.7c0,0,0.1,0,0.1,0c0.1,0,0.1,0,0.1,0c13.1-1.4,26.2-13.2,24.1-27.1
		c-1.9-12.7-13.4-20.7-25.7-19.1c-7,0.9-15.4,5.2-18.9,11.6c-3.3,5.8-3.8,12.8-2.5,19.2C165.7,43,175.9,48,186.2,47.7"/>
	<path fill="#EB2227" d="M32.3,107.3c1.5-13-8.1-19-16.9-21.3C7.6,84.2,1.2,83.2,3,77.2c0.1-0.2,0.2-0.4,0.3-0.6
		c2.8-6,9.8-9.1,19.2-11.6c1.3-0.3,2.6-0.7,4-1c8.8-2,19.2-2.8,29.2-4.6c4.5-0.8,8.8-1.8,12.8-3.2c9.3-4.1,15.3-13.1,19.1-22.2
		c1.6-3.7,2.8-7.5,3.7-11c1.4-5.5,2.4-10.3,4.1-13.8c1.7-3.2,4.1-5.3,7.9-5.9c7.4-0.8,10.4,7.3,12.8,19c2.8,13.5,2.4,32.5,8.9,44.1
		c3.5,4.7,10.2,6.4,18.2,6.4c9.5,0,20.8-2.5,30.9-5.5c12.6-3.7,23.6-7.1,30.6-6.5c3.6,0.3,6.2,1.7,7.5,4.8c0.3,0.8,0.4,1.7,0.4,2.6
		c-1.5,7.3-14.2,15.8-30.4,25.7c-20.5,12.3-46.4,23.4-56.9,36c-1.8,2.4-2.9,5.1-3.3,7.9c-2.9,12.4,7.1,28.5,18.7,41.7
		c11.1,12.6,21.4,23.3,20.9,30.3c-0.4,1.4-1.4,2.7-3.1,3.7c-1.7,1.1-3.8,1.6-6.1,1.5c-9.2-0.3-22.9-9-37.9-20.1
		c-18.9-13.9-36.7-32.8-51-38.6c-1.3-0.4-2.6-0.7-3.9-0.7c-10.5-0.3-19.7,12.3-25.6,24.6c-5.3,11.4-9.3,21.2-13.8,20.3
		c-0.9-0.2-1.8-0.8-2.8-1.9c-2.5-2.9-3.3-7.9-3.1-14.3c0.3-6.3,1.7-13.8,3.5-22.1c3.4-15.5,9.8-32.4,12.9-46.1
		C31.4,113,32,110.1,32.3,107.3"/>
	<path fill="#EB2227" d="M674.1,183.1h26.2l8.2-58.1c1.6-0.6,3.6-0.9,5.4-0.9c4,0,7.6,1.7,6.8,7.5l-7.3,51.5h26.1l7.3-51.7
		c3.1-22.2-12.3-30.3-31.7-30.3c-10.4,0-21.4,2.5-30.4,6.5L674.1,183.1z M641.3,124.5c3.1,0,6.7,2.2,6.2,5.9l-3.6,26.2
		c-0.6,4.3-4.5,6.1-7.9,6.1c-3.4,0-6.5-2.3-6-6.1l3.6-26.2C634,126.6,638.2,124.5,641.3,124.5 M604.2,156.3
		c-2.6,18.8,12.4,28.4,28.7,28.4c16.5,0,34.3-9.5,36.9-28.4l3.6-25.4c2.8-19.9-12.3-29.5-28.6-29.6c-16.5,0.2-34.3,9.8-37.1,29.6
		L604.2,156.3z M568.8,163.6c-1.5,0.5-3.3,0.8-5,0.8c-4.3,0-8.5-1.9-7.9-6.5l4-27.9c0.8-5,5.4-7,9.5-7c2,0,3.7,0.3,5,0.9
		L568.8,163.6z M608,73.2h-26.4l-4,29.5c-3.3-1.1-6.8-1.6-10.2-1.6c-15.5,0-30.6,9-33.1,27l-3.9,27.5c-3.1,21.9,11.8,29,28.7,29
		c11.8,0,24.1-3.1,34.1-6.8L608,73.2z M453.2,183.1h26.2l8.2-58.1c1.5-0.6,3.6-0.9,5.4-0.9c4,0,7.6,1.7,6.8,7.5l-7.3,51.5h26.1
		l7.3-51.7c3.1-22.2-12.3-30.3-31.7-30.3c-10.4,0-21.4,2.5-30.4,6.5L453.2,183.1z M415.8,129.9c0.6-4.5,5-7.1,8.7-7.1
		c5,0,6.8,3.7,6.2,7.5c-0.9,8.1-9.6,10.1-16,7.3L415.8,129.9z M412.2,153c18.6,4.2,39.3-3.4,42.1-22.4c2.9-19.7-10.1-29.5-26.7-29.5
		c-16.6,0-34.5,10.6-37.3,30.7l-3.3,23c-2.8,19.6,12.4,29.8,28.6,29.8c9.3,0,20.3-1.7,31.5-13l-12.6-12.7
		C427.1,165.9,410.5,165.1,412.2,153 M376.7,101.2c-19.4,0-33.8,9.5-36.8,31.4l-7,50.6h26.2l7-50.3c1.2-8.9,13.7-10.2,20.6-7.8
		l3.1-21.9C383.4,101.5,379.5,101.2,376.7,101.2 M300.5,124.5c3.1,0,6.7,2.2,6.2,5.9l-3.6,26.2c-0.6,4.3-4.5,6.1-7.9,6.1
		c-3.4,0-6.5-2.3-6.1-6.1l3.6-26.2C293.2,126.6,297.4,124.5,300.5,124.5 M263.4,156.3c-2.6,18.8,12.4,28.4,28.7,28.4
		c16.5,0,34.3-9.5,36.9-28.4l3.6-25.4c2.8-19.9-12.3-29.5-28.6-29.6c-16.4,0.2-34.3,9.8-37.1,29.6L263.4,156.3z M235.7,156
		c-2.2,4.7-6.2,6.7-9.8,6.7c-3.6,0-6.8-2.5-6.2-6.8l3.7-25.8c0.6-4.5,4.5-6.8,8.2-6.8c3.3,0,6.5,2.2,6.8,6.8l23-6.8
		c-2.3-17.2-15.8-22-26.7-22c-16.3,0-34.1,8.2-36.9,27.9l-3.7,26.2c-2.8,19.6,12.6,29.3,28.9,29.3c10.9,0,26.4-5.6,34.6-23.6
		L235.7,156z"/>
	<path fill="#EB2227" d="M719.2,202.9c0.7-3.3,4.4-4.7,8-4.7c3.3,0,6.6,1.3,7.5,4.2l3.6-1.5c-1.3-4.4-5.9-6.4-10.5-6.4
		c-5.4,0-11.1,2.8-12.2,8.3c-0.8,6.3,4.2,7.9,9.2,8.9c4.3,0.9,8.3,1.8,7.3,6.3c-0.7,3.4-4.6,5-8.3,5c-3.4,0-6.7-1.5-7.6-4.5
		l-3.6,1.5c1.3,4.5,6,6.7,10.7,6.7c5.6,0,11.4-2.8,12.5-8.5c1.5-7.7-4.3-8.9-9.6-9.9C722.1,207.5,718.4,206.7,719.2,202.9
		 M680.5,198.7h16.4l0.5-3.7h-20.1l-4.4,31.3H693l0.5-3.7h-16.4l1.4-10.1h15.1l0.5-3.7h-15.1L680.5,198.7z M648,221.2L635.6,195h-4
		l-4.4,31.3h3.7l3.5-25.1l12.1,25.1h4.5l4.4-31.3h-3.7L648,221.2z M609.6,195h-3.7l-4.4,31.3h3.7L609.6,195z M563.6,226.3h18.7
		l0.5-3.7h-15l3.9-27.6H568L563.6,226.3z M526.9,210.1l1.6-11.4h8.3c4.1-0.1,6.8,1.3,6.1,5.7c-0.6,4.3-3.5,5.7-7.7,5.7H526.9z
		 M539.5,226.3h4.5l-8.3-12.8c5.4-0.3,9.9-2.9,10.8-9.1c0.8-6.7-3.4-9.4-9.4-9.4h-11.9l-4.4,31.3h3.7l1.8-12.8h4.8L539.5,226.3z
		 M503.3,195h-3.7l-4.4,31.3h3.7L503.3,195z M469.6,212.5H460c2.3-4.7,4.5-9,6.7-13.6L469.6,212.5z M469.5,195H465l-15.6,31.3h3.9
		l4.9-10h12.1l2.3,10h3.9L469.5,195z"/>
</g>
</svg>
